<svg width="2074" height="569" viewBox="0 0 2074 569" fill="none" xmlns="http://www.w3.org/2000/svg">
<path d="M775.321 432.712C755.952 432.712 741.133 427.719 730.861 417.731C720.884 407.449 715.895 392.909 715.895 374.108V247.646H682V202.702H699.608C708.118 202.702 713.841 200.792 716.775 196.974C720.003 192.861 721.617 186.839 721.617 178.908V139.691H772.24V202.702H819.34V247.646H772.24V387.768H815.819V432.712H775.321Z" fill="#334456"/>
<path d="M896.384 169.214C884.646 169.214 876.135 166.57 870.853 161.282C865.864 155.995 863.37 149.238 863.37 141.013V132.201C863.37 123.975 865.864 117.219 870.853 111.931C876.135 106.644 884.646 104 896.384 104C907.829 104 916.193 106.644 921.475 111.931C926.758 117.219 929.399 123.975 929.399 132.201V141.013C929.399 149.238 926.758 155.995 921.475 161.282C916.193 166.57 907.829 169.214 896.384 169.214ZM868.212 202.702H924.557V432.712H868.212V202.702Z" fill="#334456"/>
<path d="M1080.55 438C1063.53 438 1048.41 435.209 1035.21 429.628C1022 424.047 1010.85 415.968 1001.75 405.393C992.948 394.818 986.199 382.186 981.503 367.499C976.808 352.517 974.46 335.773 974.46 317.266C974.46 298.76 976.808 282.163 981.503 267.475C986.199 252.787 992.948 240.303 1001.75 230.021C1010.85 219.446 1022 211.368 1035.21 205.786C1048.41 200.205 1063.53 197.414 1080.55 197.414C1103.73 197.414 1122.81 202.555 1137.77 212.836C1153.03 223.118 1164.04 237.365 1170.79 255.578L1124.57 276.288C1121.92 266.594 1116.94 258.662 1109.6 252.493C1102.56 246.031 1092.87 242.799 1080.55 242.799C1064.7 242.799 1052.81 247.793 1044.89 257.781C1037.26 267.769 1033.45 280.841 1033.45 296.997V338.857C1033.45 355.014 1037.26 368.086 1044.89 378.074C1052.81 387.768 1064.7 392.615 1080.55 392.615C1094.05 392.615 1104.46 389.237 1111.8 382.48C1119.14 375.43 1124.86 366.764 1128.97 356.483L1172.11 377.193C1164.48 397.462 1152.89 412.737 1137.33 423.018C1121.78 433.006 1102.85 438 1080.55 438Z" fill="#334456"/>
<path d="M1215.55 106.644H1271.9V303.166H1274.1L1304.47 261.747L1355.97 202.702H1419.8L1340.57 291.71L1428.17 432.712H1361.26L1302.27 329.604L1271.9 362.652V432.712H1215.55V106.644Z" fill="#334456"/>
<path d="M1544.86 438C1527.84 438 1512.58 435.209 1499.08 429.628C1485.88 423.753 1474.58 415.675 1465.19 405.393C1456.09 394.818 1449.05 382.186 1444.06 367.499C1439.07 352.517 1436.58 335.773 1436.58 317.266C1436.58 299.054 1438.92 282.603 1443.62 267.916C1448.61 253.228 1455.65 240.743 1464.75 230.462C1473.85 219.887 1485 211.808 1498.2 206.227C1511.41 200.352 1526.38 197.414 1543.1 197.414C1561 197.414 1576.56 200.499 1589.76 206.668C1602.97 212.836 1613.83 221.208 1622.34 231.784C1630.85 242.359 1637.16 254.697 1641.27 268.797C1645.67 282.603 1647.87 297.438 1647.87 313.301V331.807H1495.12V337.536C1495.12 354.28 1499.82 367.792 1509.21 378.074C1518.6 388.062 1532.54 393.055 1551.03 393.055C1565.11 393.055 1576.56 390.118 1585.36 384.243C1594.46 378.368 1602.53 370.877 1609.57 361.77L1639.95 395.699C1630.56 408.918 1617.64 419.347 1601.21 426.984C1585.07 434.328 1566.29 438 1544.86 438ZM1543.98 239.715C1529.02 239.715 1517.13 244.709 1508.33 254.697C1499.52 264.684 1495.12 277.609 1495.12 293.472V296.997H1589.32V293.032C1589.32 277.169 1585.36 264.391 1577.44 254.697C1569.81 244.709 1558.66 239.715 1543.98 239.715Z" fill="#334456"/>
<path d="M1769.19 432.712C1749.83 432.712 1735.01 427.719 1724.74 417.731C1714.76 407.449 1709.77 392.909 1709.77 374.108V247.646H1675.87V202.702H1693.48C1701.99 202.702 1707.71 200.792 1710.65 196.974C1713.88 192.861 1715.49 186.839 1715.49 178.908V139.691H1766.11V202.702H1813.21V247.646H1766.11V387.768H1809.69V432.712H1769.19Z" fill="#334456"/>
<path d="M1937.36 438C1915.35 438 1896.86 434.328 1881.89 426.984C1866.93 419.347 1853.72 408.918 1842.28 395.699L1876.61 362.211C1885.12 371.905 1894.37 379.543 1904.34 385.124C1914.62 390.705 1926.35 393.496 1939.56 393.496C1953.06 393.496 1962.74 391.146 1968.61 386.446C1974.77 381.746 1977.86 375.283 1977.86 367.058C1977.86 360.302 1975.66 355.014 1971.25 351.195C1967.14 347.083 1959.96 344.292 1949.68 342.823L1926.79 339.739C1901.85 336.507 1882.77 329.457 1869.57 318.588C1856.66 307.426 1850.2 291.269 1850.2 270.119C1850.2 258.956 1852.25 248.968 1856.36 240.156C1860.47 231.049 1866.34 223.412 1873.97 217.243C1881.6 210.78 1890.7 205.933 1901.26 202.702C1912.12 199.177 1924.15 197.414 1937.36 197.414C1948.51 197.414 1958.34 198.296 1966.85 200.058C1975.66 201.527 1983.58 203.877 1990.62 207.108C1997.67 210.046 2004.12 213.865 2009.99 218.565C2015.86 222.971 2021.58 227.965 2027.16 233.546L1994.14 266.594C1987.39 259.544 1979.32 253.668 1969.93 248.968C1960.54 244.268 1950.27 241.918 1939.12 241.918C1926.79 241.918 1917.84 244.121 1912.27 248.528C1906.99 252.934 1904.34 258.662 1904.34 265.712C1904.34 273.35 1906.55 279.225 1910.95 283.338C1915.64 287.157 1923.42 289.947 1934.28 291.71L1957.61 294.794C2007.2 301.844 2032 324.463 2032 362.652C2032 373.814 2029.65 384.096 2024.96 393.496C2020.56 402.602 2014.25 410.534 2006.03 417.29C1997.81 423.753 1987.83 428.894 1976.1 432.712C1964.65 436.237 1951.74 438 1937.36 438Z" fill="#334456"/>
<path d="M284.5 569C441.625 569 569 441.625 569 284.5C569 127.375 441.625 0 284.5 0C127.375 0 0 127.375 0 284.5C0 441.625 127.375 569 284.5 569Z" fill="url(#paint0_linear_1035_577)"/>
<path d="M403 410H270.989C198.22 410 139 350.776 139 277.988C139 205.224 198.22 146 270.991 146C343.78 146 403 205.224 403 277.988V410Z" fill="white" stroke="white" stroke-width="6"/>
<defs>
<linearGradient id="paint0_linear_1035_577" x1="28450" y1="0" x2="28450" y2="56900" gradientUnits="userSpaceOnUse">
<stop stop-color="#56B9FC"/>
<stop offset="1" stop-color="#3099F0"/>
</linearGradient>
</defs>
</svg>
